<?xml version="1.0" standalone="no"?>
<!DOCTYPE svg PUBLIC "-//W3C//DTD SVG 20010904//EN"
 "http://www.w3.org/TR/2001/REC-SVG-20010904/DTD/svg10.dtd">
<svg version="1.0" xmlns="http://www.w3.org/2000/svg"
 width="1704.000000pt" height="533.000000pt" viewBox="0 0 1704.000000 533.000000"
 preserveAspectRatio="xMidYMid meet">

<g transform="translate(0.000000,533.000000) scale(0.100000,-0.100000)"
fill="#000000" stroke="none">
<path d="M6130 3285 l0 -1855 270 0 269 0 3 757 3 758 24 70 c33 99 76 171
141 235 102 101 229 150 390 150 267 0 441 -131 517 -388 16 -51 18 -135 21
-820 l3 -762 267 2 267 3 0 820 c-1 745 -2 828 -18 910 -34 172 -72 270 -153
391 -144 218 -353 331 -650 350 -297 20 -547 -73 -741 -274 l-73 -75 0 791 0
792 -270 0 -270 0 0 -1855z"/>
<path d="M1675 4295 c-308 -50 -562 -167 -800 -367 -191 -160 -349 -376 -446
-609 -42 -102 -95 -313 -110 -439 -15 -133 -6 -362 20 -492 128 -635 620
-1135 1248 -1268 125 -27 409 -38 538 -21 195 26 401 93 555 181 l86 49 125
-62 c138 -70 306 -129 443 -155 141 -26 476 -23 613 6 197 43 400 129 573 243
124 82 342 299 427 424 209 311 305 669 275 1028 -14 162 -31 252 -74 387 -79
246 -215 467 -404 652 -107 104 -126 119 -229 190 -157 106 -366 194 -572 240
-85 19 -128 22 -318 22 -190 0 -234 -3 -323 -22 -160 -35 -250 -67 -398 -142
l-136 -69 -119 60 c-133 67 -288 122 -424 151 -123 26 -424 33 -550 13z m442
-280 c104 -17 225 -53 328 -97 39 -17 72 -32 74 -34 2 -2 -25 -34 -60 -71
-202 -214 -348 -489 -409 -773 -46 -209 -46 -462 0 -675 62 -284 200 -548 401
-768 39 -43 69 -80 67 -82 -2 -3 -33 -18 -69 -34 -277 -125 -631 -146 -921
-55 -561 178 -938 694 -938 1285 0 642 485 1204 1125 1304 111 18 293 18 402
0z m739 -377 l79 -83 -82 -3 c-46 -2 -120 -2 -165 0 l-83 3 79 83 c44 45 82
82 86 82 4 0 42 -37 86 -82z m260 -363 c24 -52 44 -97 44 -100 0 -3 -173 -5
-385 -5 -212 0 -385 3 -385 7 0 5 21 50 46 100 l46 93 295 0 294 0 45 -95z
m95 -319 c5 -16 11 -60 15 -98 l7 -68 -467 0 -466 0 0 28 c0 33 19 152 26 164
3 4 202 7 441 6 l437 -3 7 -29z m26 -425 c-9 -134 42 -121 -466 -121 l-438 0
-11 58 c-16 85 -21 130 -15 136 4 3 215 6 471 6 l465 0 -6 -79z m-87 -305 c0
-12 -63 -142 -81 -167 l-20 -29 -290 0 -290 0 -45 95 c-24 52 -44 97 -44 100
0 3 173 5 385 5 212 0 385 -2 385 -4z m-238 -403 c-11 -16 -48 -55 -82 -87
l-62 -59 -69 69 c-112 110 -116 104 71 104 l161 0 -19 -27z"/>
<path d="M8730 3853 c0 -5 241 -490 536 -1078 l535 -1071 -126 -279 c-158
-349 -351 -777 -375 -830 -10 -22 -50 -111 -89 -197 -39 -87 -71 -160 -71
-163 0 -3 128 -5 284 -5 l283 0 33 73 c19 39 50 108 71 152 20 44 49 107 64
140 15 33 65 141 110 240 99 216 133 291 170 370 102 224 197 430 225 490 18
39 79 171 135 295 57 124 169 369 250 545 81 176 196 426 255 555 59 129 122
267 140 305 51 110 201 439 207 453 4 10 -54 12 -287 10 l-291 -3 -85 -195
c-47 -107 -124 -283 -171 -390 -47 -107 -100 -229 -118 -270 -18 -41 -79 -178
-135 -305 -55 -126 -119 -274 -142 -328 -23 -54 -45 -94 -49 -90 -7 7 -144
292 -274 568 -18 39 -57 122 -88 185 -30 63 -95 201 -145 305 -49 105 -118
249 -152 320 -34 72 -69 147 -77 168 l-15 37 -304 0 c-167 0 -304 -3 -304 -7z"/>
<path d="M11547 3778 c20 -46 126 -299 238 -563 501 -1189 578 -1372 662
-1570 l89 -210 269 -3 270 -2 149 357 c185 443 670 1601 778 1858 44 105 82
196 85 203 4 9 -56 12 -280 12 l-286 0 -19 -52 c-11 -29 -73 -186 -137 -348
-64 -162 -169 -425 -232 -585 -63 -159 -160 -406 -216 -547 -56 -142 -105
-258 -108 -258 -3 0 -49 109 -101 243 -53 133 -171 429 -261 657 -91 228 -207
522 -258 652 l-94 238 -292 0 -291 0 35 -82z"/>
<path d="M14269 3838 c9 -23 138 -328 505 -1198 108 -256 267 -633 353 -837
l157 -373 268 0 269 0 20 48 c24 54 536 1277 812 1940 l185 442 -282 0 -283 0
-12 -27 c-7 -16 -50 -122 -96 -238 -46 -115 -126 -318 -178 -450 -52 -132
-152 -384 -222 -560 -198 -501 -200 -507 -209 -508 -8 -2 -22 32 -491 1218
-91 231 -179 452 -195 490 l-29 70 -290 3 -291 2 9 -22z"/>
</g>
</svg>
